<svg xmlns="http://www.w3.org/2000/svg" viewBox="0 0 1600 900" font-family="ui-monospace, SFMono-Regular, Menlo, monospace">
  <rect width="1600" height="900" fill="#0d1117"/>
  <!-- board window -->
  <rect x="120" y="80" width="1360" height="740" rx="18" fill="#161b22" stroke="#30363d" stroke-width="2"/>
  <circle cx="170" cy="124" r="10" fill="#ff5f57"/>
  <circle cx="204" cy="124" r="10" fill="#febc2e"/>
  <circle cx="238" cy="124" r="10" fill="#28c840"/>
  <text x="800" y="132" text-anchor="middle" font-size="24" fill="#8b949e">ClickUp · Tech Co · Support Tickets</text>
  <line x1="120" y1="164" x2="1480" y2="164" stroke="#30363d" stroke-width="2"/>

  <!-- column: to do -->
  <circle cx="188" cy="216" r="8" fill="#8b949e"/>
  <text x="210" y="225" font-size="24" fill="#c9d1d9">TO DO</text>
  <text x="320" y="225" font-size="22" fill="#484f58">2</text>
  <rect x="168" y="252" width="400" height="96" rx="12" fill="#0d1117" stroke="#30363d" stroke-width="2"/>
  <text x="192" y="296" font-size="22" fill="#c9d1d9">Spa intake forms update</text>
  <rect x="192" y="312" width="90" height="26" rx="13" fill="#161b22" stroke="#30363d"/>
  <text x="237" y="331" text-anchor="middle" font-size="16" fill="#8b949e">forms</text>
  <rect x="168" y="368" width="400" height="96" rx="12" fill="#0d1117" stroke="#30363d" stroke-width="2"/>
  <text x="192" y="412" font-size="22" fill="#c9d1d9">Filter maSTRmind contacts</text>
  <rect x="192" y="428" width="80" height="26" rx="13" fill="#161b22" stroke="#30363d"/>
  <text x="232" y="447" text-anchor="middle" font-size="16" fill="#8b949e">crm</text>

  <!-- column: in progress -->
  <circle cx="628" cy="216" r="8" fill="#58a6ff"/>
  <text x="650" y="225" font-size="24" fill="#c9d1d9">IN PROGRESS</text>
  <text x="850" y="225" font-size="22" fill="#484f58">3</text>
  <rect x="608" y="252" width="400" height="96" rx="12" fill="#0d1117" stroke="#30363d" stroke-width="2"/>
  <text x="632" y="284" font-size="22" fill="#c9d1d9">[BoltOS] Date picker for</text>
  <text x="632" y="314" font-size="22" fill="#c9d1d9">future arrival lookups</text>
  <rect x="608" y="368" width="400" height="96" rx="12" fill="#0d1117" stroke="#30363d" stroke-width="2"/>
  <text x="632" y="400" font-size="22" fill="#c9d1d9">[BoltOS] Charges directly</text>
  <text x="632" y="430" font-size="22" fill="#c9d1d9">in reservation folio</text>
  <rect x="608" y="484" width="400" height="96" rx="12" fill="#0d1117" stroke="#30363d" stroke-width="2"/>
  <text x="632" y="516" font-size="22" fill="#c9d1d9">Akia reservation data pull</text>
  <rect x="632" y="532" width="90" height="26" rx="13" fill="#161b22" stroke="#f8ae00"/>
  <text x="677" y="551" text-anchor="middle" font-size="16" fill="#f8ae00">high</text>

  <!-- column: complete -->
  <circle cx="1068" cy="216" r="8" fill="#3fb950"/>
  <text x="1090" y="225" font-size="24" fill="#c9d1d9">COMPLETE</text>
  <text x="1265" y="225" font-size="22" fill="#484f58">14</text>
  <rect x="1048" y="252" width="400" height="96" rx="12" fill="#0d1117" stroke="#30363d" stroke-width="2"/>
  <text x="1072" y="284" font-size="22" fill="#8b949e">[BoltOS] Staging to</text>
  <text x="1072" y="314" font-size="22" fill="#8b949e">production migration</text>
  <text x="1408" y="292" font-size="26" fill="#3fb950">✓</text>
  <rect x="1048" y="368" width="400" height="96" rx="12" fill="#0d1117" stroke="#30363d" stroke-width="2"/>
  <text x="1072" y="400" font-size="22" fill="#8b949e">[BoltOS] Guest Inbox for</text>
  <text x="1072" y="430" font-size="22" fill="#8b949e">Spa Concierge roles</text>
  <text x="1408" y="408" font-size="26" fill="#3fb950">✓</text>
  <rect x="1048" y="484" width="400" height="96" rx="12" fill="#0d1117" stroke="#30363d" stroke-width="2"/>
  <text x="1072" y="516" font-size="22" fill="#8b949e">[BoltOS] Web booking</text>
  <text x="1072" y="546" font-size="22" fill="#8b949e">badges on Closer Board</text>
  <text x="1408" y="524" font-size="26" fill="#3fb950">✓</text>
  <rect x="1048" y="600" width="400" height="96" rx="12" fill="#0d1117" stroke="#30363d" stroke-width="2"/>
  <text x="1072" y="632" font-size="22" fill="#8b949e">[BoltOS] Role access</text>
  <text x="1072" y="662" font-size="22" fill="#8b949e">grants, person by person</text>
  <text x="1408" y="640" font-size="26" fill="#3fb950">✓</text>

  <!-- footer -->
  <rect x="168" y="730" width="380" height="52" rx="26" fill="#0d1117" stroke="#3fb950" stroke-width="2"/>
  <text x="358" y="764" text-anchor="middle" font-size="24" fill="#3fb950">queue finally hit zero</text>
</svg>
